<?xml version="1.0" encoding="UTF-8" standalone="no"?>
<!DOCTYPE svg PUBLIC "-//W3C//DTD SVG 1.1//EN" "http://www.w3.org/Graphics/SVG/1.1/DTD/svg11.dtd">
<svg width="100%" height="100%" viewBox="0 0 1795 1795" version="1.1" xmlns="http://www.w3.org/2000/svg" xmlns:xlink="http://www.w3.org/1999/xlink" xml:space="preserve" xmlns:serif="http://www.serif.com/" style="fill-rule:evenodd;clip-rule:evenodd;stroke-linecap:round;stroke-linejoin:round;stroke-miterlimit:1.5;">
    <g transform="matrix(1,0,0,1,-342.872,-342.872)">
        <g transform="matrix(0.977871,0,0,0.988612,-391.858,-57.3885)">
            <path d="M1668.95,416.462L2574.82,2208.52L763.075,2208.52L1668.95,416.462Z" style="stroke:white;stroke-width:23.31px;"/>
        </g>
        <g transform="matrix(1.33056,0,0,1.41212,-115.449,-422.09)">
            <ellipse cx="1019.27" cy="1419.5" rx="409.385" ry="378.612" style="stroke:white;stroke-width:9.11px;"/>
        </g>
        <g transform="matrix(4.82982,0,0,5.93117,-4127.37,-4100.62)">
            <g transform="matrix(294.202,0,0,294.202,1006.23,1014.17)">
                <path d="M0.432,-0.373C0.432,-0.324 0.423,-0.273 0.404,-0.22C0.385,-0.167 0.359,-0.121 0.326,-0.08C0.276,-0.018 0.225,0.013 0.172,0.013C0.143,0.013 0.12,0.005 0.101,-0.011C0.082,-0.026 0.073,-0.046 0.073,-0.071C0.073,-0.102 0.086,-0.148 0.112,-0.209L0.17,-0.346C0.178,-0.365 0.182,-0.377 0.182,-0.383C0.182,-0.397 0.174,-0.404 0.158,-0.404C0.145,-0.404 0.127,-0.394 0.105,-0.375C0.082,-0.355 0.066,-0.335 0.056,-0.315C0.051,-0.305 0.046,-0.3 0.041,-0.3C0.035,-0.3 0.032,-0.302 0.032,-0.307C0.032,-0.322 0.05,-0.346 0.087,-0.381C0.122,-0.414 0.156,-0.43 0.189,-0.43C0.21,-0.43 0.226,-0.425 0.239,-0.414C0.252,-0.403 0.258,-0.389 0.258,-0.372C0.258,-0.353 0.252,-0.329 0.239,-0.3L0.183,-0.17C0.164,-0.127 0.155,-0.09 0.155,-0.06C0.155,-0.025 0.169,-0.008 0.198,-0.008C0.24,-0.008 0.286,-0.046 0.336,-0.123C0.385,-0.2 0.41,-0.271 0.41,-0.337C0.41,-0.359 0.405,-0.37 0.396,-0.37C0.395,-0.37 0.392,-0.369 0.387,-0.368C0.381,-0.366 0.376,-0.365 0.372,-0.365C0.354,-0.365 0.345,-0.373 0.345,-0.39C0.345,-0.401 0.349,-0.41 0.358,-0.418C0.366,-0.425 0.376,-0.429 0.387,-0.429C0.417,-0.429 0.432,-0.41 0.432,-0.373Z" style="fill:white;fill-rule:nonzero;"/>
            </g>
        </g>
        <g transform="matrix(1.53744,0,0,1.63105,-1564.87,-180.605)">
            <g transform="matrix(100,0,0,100,1796.09,1286.59)">
                <path d="M0.299,-0.702C0.372,-0.702 0.428,-0.671 0.467,-0.608C0.506,-0.545 0.526,-0.458 0.526,-0.344C0.526,-0.235 0.507,-0.148 0.469,-0.083C0.431,-0.019 0.374,0.013 0.299,0.013C0.226,0.013 0.17,-0.018 0.131,-0.081C0.091,-0.143 0.072,-0.231 0.072,-0.344C0.072,-0.454 0.091,-0.541 0.129,-0.606C0.167,-0.67 0.224,-0.702 0.299,-0.702ZM0.299,-0.057C0.347,-0.057 0.383,-0.08 0.406,-0.126C0.429,-0.171 0.441,-0.244 0.441,-0.344C0.441,-0.444 0.429,-0.517 0.406,-0.563C0.383,-0.608 0.347,-0.631 0.299,-0.631C0.251,-0.631 0.216,-0.608 0.192,-0.561C0.169,-0.514 0.157,-0.442 0.157,-0.344C0.157,-0.245 0.169,-0.172 0.192,-0.126C0.215,-0.08 0.251,-0.057 0.299,-0.057ZM0.297,-0.417C0.317,-0.417 0.335,-0.41 0.349,-0.396C0.363,-0.382 0.37,-0.365 0.37,-0.344C0.37,-0.323 0.363,-0.305 0.349,-0.29C0.334,-0.275 0.317,-0.267 0.297,-0.267C0.277,-0.267 0.26,-0.275 0.246,-0.29C0.232,-0.305 0.225,-0.323 0.225,-0.344C0.225,-0.365 0.232,-0.382 0.245,-0.396C0.259,-0.41 0.276,-0.417 0.297,-0.417Z" style="fill:white;fill-rule:nonzero;"/>
            </g>
            <g transform="matrix(100,0,0,100,1856.1,1286.59)">
                <path d="M0.181,-0.443C0.198,-0.466 0.221,-0.485 0.25,-0.5C0.279,-0.514 0.309,-0.521 0.341,-0.521C0.399,-0.521 0.445,-0.497 0.479,-0.448C0.512,-0.4 0.529,-0.337 0.529,-0.26C0.529,-0.182 0.511,-0.117 0.476,-0.065C0.441,-0.013 0.394,0.013 0.335,0.013C0.303,0.013 0.274,0.005 0.246,-0.01C0.219,-0.026 0.197,-0.047 0.181,-0.073L0.181,0.201L0.105,0.201L0.105,-0.509L0.181,-0.509L0.181,-0.443ZM0.181,-0.367L0.181,-0.156C0.195,-0.127 0.215,-0.103 0.239,-0.084C0.264,-0.065 0.289,-0.055 0.315,-0.055C0.356,-0.055 0.389,-0.074 0.413,-0.113C0.437,-0.151 0.449,-0.199 0.449,-0.256C0.449,-0.314 0.438,-0.362 0.415,-0.399C0.391,-0.437 0.359,-0.455 0.318,-0.455C0.264,-0.455 0.219,-0.426 0.181,-0.367Z" style="fill:white;fill-rule:nonzero;"/>
            </g>
            <g transform="matrix(100,0,0,100,1916.11,1286.59)">
                <path d="M0.46,-0L0.252,-0L0.252,-0.623L0.119,-0.623L0.119,-0.689L0.328,-0.689L0.328,-0.066L0.46,-0.066L0.46,-0Z" style="fill:white;fill-rule:nonzero;"/>
            </g>
            <g transform="matrix(100,0,0,100,1976.12,1286.59)">
                <path d="M0.512,-0.252L0.163,-0.252C0.163,-0.194 0.18,-0.147 0.213,-0.109C0.247,-0.072 0.287,-0.053 0.336,-0.053C0.382,-0.053 0.43,-0.062 0.479,-0.078L0.492,-0.017C0.447,0.003 0.395,0.013 0.335,0.013C0.259,0.013 0.199,-0.011 0.152,-0.06C0.106,-0.108 0.083,-0.174 0.083,-0.256C0.083,-0.337 0.104,-0.401 0.145,-0.449C0.187,-0.497 0.24,-0.521 0.306,-0.521C0.365,-0.521 0.414,-0.499 0.453,-0.454C0.493,-0.41 0.512,-0.35 0.512,-0.276L0.512,-0.252ZM0.429,-0.314C0.429,-0.354 0.417,-0.387 0.392,-0.414C0.367,-0.441 0.34,-0.455 0.309,-0.455C0.27,-0.455 0.237,-0.442 0.211,-0.416C0.185,-0.39 0.171,-0.356 0.168,-0.314L0.429,-0.314Z" style="fill:white;fill-rule:nonzero;"/>
            </g>
            <g transform="matrix(100,0,0,100,2036.13,1286.59)">
                <path d="M0.515,-0L0.429,-0L0.293,-0.199L0.152,-0L0.071,-0L0.252,-0.255L0.071,-0.509L0.158,-0.509L0.295,-0.311L0.434,-0.509L0.515,-0.509L0.335,-0.258L0.515,-0Z" style="fill:white;fill-rule:nonzero;"/>
            </g>
        </g>
    </g>
</svg>
