<?xml version="1.0" encoding="UTF-8" standalone="no"?>
<!DOCTYPE svg PUBLIC "-//W3C//DTD SVG 1.1//EN" "http://www.w3.org/Graphics/SVG/1.1/DTD/svg11.dtd">
<svg width="100%" height="100%" viewBox="0 0 733 733" version="1.1" xmlns="http://www.w3.org/2000/svg" xmlns:xlink="http://www.w3.org/1999/xlink" xml:space="preserve" xmlns:serif="http://www.serif.com/" style="fill-rule:evenodd;clip-rule:evenodd;stroke-linejoin:round;stroke-miterlimit:2;">
    <g transform="matrix(1,0,0,1,-732.283,-732.283)">
        <g transform="matrix(0.89437,0,0,0.967063,186.82,-274.32)">
            <ellipse cx="1019.27" cy="1419.5" rx="409.385" ry="378.612"/>
        </g>
        <g transform="matrix(2.68199,0,0,2.57286,-1948,-1362.47)">
            <g transform="matrix(243.767,0,0,243.767,1006.23,1014.17)">
                <path d="M0.252,-0.516L0.183,-0.045L0.193,-0.037C0.238,-0.04 0.278,-0.053 0.314,-0.074C0.349,-0.094 0.379,-0.121 0.404,-0.154C0.429,-0.186 0.448,-0.222 0.461,-0.263C0.474,-0.303 0.48,-0.344 0.48,-0.386C0.48,-0.407 0.478,-0.428 0.474,-0.449C0.47,-0.469 0.464,-0.488 0.456,-0.505L0.51,-0.521C0.519,-0.502 0.525,-0.481 0.53,-0.458C0.535,-0.435 0.537,-0.411 0.537,-0.388C0.537,-0.335 0.528,-0.284 0.51,-0.237C0.491,-0.189 0.466,-0.147 0.435,-0.111C0.403,-0.075 0.366,-0.047 0.324,-0.026C0.281,-0.005 0.236,0.006 0.189,0.006C0.149,0.006 0.129,-0.011 0.129,-0.046C0.129,-0.05 0.129,-0.055 0.13,-0.061C0.131,-0.066 0.132,-0.072 0.133,-0.078L0.19,-0.468L0.073,-0.468L0.081,-0.516L0.252,-0.516Z" style="fill:white;fill-rule:nonzero;"/>
            </g>
        </g>
        <g transform="matrix(1.07447,0,0,1.2125,-24.8263,-327.486)">
            <rect x="1040.69" y="1216.89" width="281.089" height="82.412" style="fill:rgb(0,67,206);"/>
        </g>
        <g transform="matrix(1.72539,0,0,1.79148,-890.615,-1062.24)">
            <g transform="matrix(53.7989,0,0,53.7989,1156.55,1275.76)">
                <path d="M0.3,0.012C0.207,0.012 0.138,-0.02 0.094,-0.083C0.049,-0.146 0.027,-0.235 0.027,-0.349C0.027,-0.463 0.049,-0.552 0.094,-0.615C0.138,-0.678 0.207,-0.71 0.3,-0.71C0.393,-0.71 0.462,-0.678 0.507,-0.615C0.551,-0.552 0.573,-0.463 0.573,-0.349C0.573,-0.235 0.551,-0.146 0.507,-0.083C0.462,-0.02 0.393,0.012 0.3,0.012ZM0.3,-0.106C0.345,-0.106 0.376,-0.122 0.394,-0.153C0.411,-0.184 0.42,-0.228 0.42,-0.284L0.42,-0.414C0.42,-0.47 0.411,-0.514 0.394,-0.545C0.376,-0.576 0.345,-0.592 0.3,-0.592C0.255,-0.592 0.224,-0.576 0.207,-0.545C0.189,-0.514 0.18,-0.47 0.18,-0.414L0.18,-0.284C0.18,-0.228 0.189,-0.184 0.207,-0.153C0.224,-0.122 0.255,-0.106 0.3,-0.106ZM0.3,-0.29C0.277,-0.29 0.261,-0.295 0.252,-0.304C0.243,-0.313 0.238,-0.325 0.238,-0.338L0.238,-0.36C0.238,-0.373 0.243,-0.385 0.252,-0.394C0.261,-0.403 0.277,-0.408 0.3,-0.408C0.323,-0.408 0.339,-0.403 0.349,-0.394C0.358,-0.385 0.362,-0.373 0.362,-0.36L0.362,-0.338C0.362,-0.325 0.358,-0.313 0.349,-0.304C0.339,-0.295 0.323,-0.29 0.3,-0.29Z" style="fill:white;fill-rule:nonzero;"/>
            </g>
            <g transform="matrix(53.7989,0,0,53.7989,1188.82,1275.76)">
                <path d="M0.059,-0.516L0.207,-0.516L0.207,-0.422L0.214,-0.422C0.227,-0.453 0.245,-0.478 0.269,-0.498C0.293,-0.518 0.326,-0.528 0.367,-0.528C0.396,-0.528 0.422,-0.523 0.446,-0.512C0.469,-0.501 0.49,-0.485 0.507,-0.463C0.524,-0.441 0.537,-0.413 0.547,-0.379C0.556,-0.345 0.561,-0.305 0.561,-0.258C0.561,-0.211 0.556,-0.171 0.547,-0.137C0.537,-0.103 0.524,-0.075 0.507,-0.053C0.49,-0.031 0.469,-0.015 0.446,-0.004C0.422,0.007 0.396,0.012 0.367,0.012C0.326,0.012 0.293,0.002 0.269,-0.018C0.245,-0.037 0.227,-0.063 0.214,-0.094L0.207,-0.094L0.207,0.2L0.059,0.2L0.059,-0.516ZM0.303,-0.103C0.336,-0.103 0.362,-0.113 0.38,-0.134C0.398,-0.154 0.407,-0.182 0.407,-0.218L0.407,-0.298C0.407,-0.334 0.398,-0.362 0.38,-0.383C0.362,-0.403 0.336,-0.413 0.303,-0.413C0.277,-0.413 0.255,-0.407 0.236,-0.394C0.217,-0.381 0.207,-0.361 0.207,-0.334L0.207,-0.182C0.207,-0.155 0.217,-0.135 0.236,-0.122C0.255,-0.109 0.277,-0.103 0.303,-0.103Z" style="fill:white;fill-rule:nonzero;"/>
            </g>
            <g transform="matrix(53.7989,0,0,53.7989,1221.1,1275.76)">
                <path d="M0.068,-0.115L0.226,-0.115L0.226,-0.625L0.068,-0.625L0.068,-0.74L0.374,-0.74L0.374,-0.115L0.532,-0.115L0.532,-0L0.068,-0L0.068,-0.115Z" style="fill:white;fill-rule:nonzero;"/>
            </g>
            <g transform="matrix(53.7989,0,0,53.7989,1253.38,1275.76)">
                <path d="M0.314,0.012C0.227,0.012 0.162,-0.012 0.117,-0.06C0.072,-0.108 0.05,-0.173 0.05,-0.256C0.05,-0.298 0.056,-0.336 0.068,-0.37C0.079,-0.403 0.096,-0.432 0.118,-0.456C0.139,-0.479 0.166,-0.497 0.197,-0.51C0.228,-0.522 0.262,-0.528 0.301,-0.528C0.34,-0.528 0.374,-0.522 0.405,-0.51C0.436,-0.497 0.462,-0.48 0.483,-0.457C0.504,-0.434 0.521,-0.407 0.533,-0.375C0.544,-0.342 0.55,-0.306 0.55,-0.266L0.55,-0.222L0.197,-0.222L0.197,-0.213C0.197,-0.18 0.207,-0.153 0.228,-0.133C0.249,-0.112 0.279,-0.102 0.319,-0.102C0.35,-0.102 0.376,-0.108 0.398,-0.12C0.42,-0.131 0.439,-0.147 0.455,-0.166L0.535,-0.079C0.515,-0.054 0.487,-0.033 0.451,-0.015C0.415,0.003 0.369,0.012 0.314,0.012ZM0.302,-0.422C0.27,-0.422 0.245,-0.412 0.226,-0.393C0.207,-0.373 0.197,-0.346 0.197,-0.313L0.197,-0.305L0.405,-0.305L0.405,-0.313C0.405,-0.347 0.396,-0.374 0.378,-0.393C0.359,-0.412 0.334,-0.422 0.302,-0.422Z" style="fill:white;fill-rule:nonzero;"/>
            </g>
            <g transform="matrix(53.7989,0,0,53.7989,1285.66,1275.76)">
                <path d="M0.023,-0L0.216,-0.262L0.036,-0.516L0.205,-0.516L0.26,-0.433L0.302,-0.366L0.31,-0.366L0.353,-0.433L0.409,-0.516L0.564,-0.516L0.384,-0.27L0.577,-0L0.407,-0L0.342,-0.097L0.297,-0.166L0.289,-0.166L0.245,-0.097L0.179,-0L0.023,-0Z" style="fill:white;fill-rule:nonzero;"/>
            </g>
        </g>
    </g>
</svg>
